<?xml version="1.0" standalone="no"?>
<!DOCTYPE svg PUBLIC "-//W3C//DTD SVG 20010904//EN"
 "http://www.w3.org/TR/2001/REC-SVG-20010904/DTD/svg10.dtd">
<svg version="1.0" xmlns="http://www.w3.org/2000/svg"
 width="315.000000pt" height="315.000000pt" viewBox="0 0 315.000000 315.000000"
 preserveAspectRatio="xMidYMid meet">
<metadata>
Created by potrace 1.14, written by Peter Selinger 2001-2017
</metadata>
<g transform="translate(0.000000,315.000000) scale(0.100000,-0.100000)"
fill="#000000" stroke="none">
<path d="M1947 3002 c-21 -23 -21 -52 -1 -100 8 -20 18 -63 20 -94 10 -106
-24 -141 -235 -249 -127 -65 -209 -136 -241 -211 -26 -58 -36 -184 -21 -250
l9 -38 -419 -1 c-230 -1 -422 -2 -426 -3 -5 -1 -28 -6 -53 -10 -156 -27 -344
-152 -439 -290 -139 -202 -170 -473 -79 -689 86 -204 256 -356 473 -423 85
-26 305 -26 390 0 164 50 322 164 401 290 l29 46 215 0 215 0 28 -45 c80 -127
237 -240 402 -291 85 -26 305 -26 390 0 222 69 395 227 478 436 64 162 61 375
-6 535 -91 217 -289 382 -517 430 -57 12 -159 15 -515 15 l-443 0 -7 38 c-17
85 -14 148 9 198 30 64 69 94 216 170 205 106 259 166 268 299 3 57 0 90 -18
147 -12 40 -29 81 -37 91 -21 22 -65 22 -86 -1z"/>
</g>
</svg>
